<svg width="18" height="20" viewBox="0 0 18 20" fill="none" xmlns="http://www.w3.org/2000/svg">
<path d="M15.75 19.0001L15.75 10.0001C15.75 9.59012 16.09 9.25012 16.5 9.25012C16.91 9.25012 17.25 9.59012 17.25 10.0001V19.0001C17.25 19.4101 16.91 19.7501 16.5 19.7501C16.09 19.7501 15.75 19.4101 15.75 19.0001ZM10.75 19.0001L10.75 10.0001C10.75 9.59012 11.09 9.25012 11.5 9.25012C11.91 9.25012 12.25 9.59012 12.25 10.0001L12.25 19.0001C12.25 19.4101 11.91 19.7501 11.5 19.7501C11.09 19.7501 10.75 19.4101 10.75 19.0001ZM5.75 19.0001L5.75 1.00012C5.75 0.590122 6.09 0.250122 6.5 0.250122C6.91 0.250122 7.25 0.590122 7.25 1.00012L7.25 19.0001C7.25 19.4101 6.91 19.7501 6.5 19.7501C6.09 19.7501 5.75 19.4101 5.75 19.0001ZM0.75 19.0001L0.75 1.00012C0.75 0.590122 1.09 0.250122 1.5 0.250122C1.91 0.250122 2.25 0.590122 2.25 1.00012L2.25 19.0001C2.25 19.4101 1.91 19.7501 1.5 19.7501C1.09 19.7501 0.75 19.4101 0.75 19.0001Z" fill="black"/>
</svg>
